<svg xmlns="http://www.w3.org/2000/svg" width="33.5" height="31.5" viewBox="0 0 33.5 31.5">
  <path id="Icon_awesome-facebook-square" data-name="Icon awesome-facebook-square" d="M29.911,2.25H3.589A3.487,3.487,0,0,0,0,5.625v24.75A3.487,3.487,0,0,0,3.589,33.75H13.852V23.041H9.141V18h4.711V14.158c0-4.37,2.767-6.784,7-6.784a30.3,30.3,0,0,1,4.152.34V12H22.67c-2.3,0-3.022,1.344-3.022,2.723V18h5.143l-.823,5.041H19.648V33.75H29.911A3.487,3.487,0,0,0,33.5,30.375V5.625A3.487,3.487,0,0,0,29.911,2.25Z" transform="translate(0 -2.25)" fill="#f6f7f8"/>
</svg>
