<?xml version="1.0" standalone="no"?><svg xmlns="http://www.w3.org/2000/svg" viewBox="0 0 1440 320"><path fill="#0099ff" fill-opacity="1" d="M0,128L16,138.7C32,149,64,171,96,165.3C128,160,160,128,192,122.7C224,117,256,139,288,138.7C320,139,352,117,384,90.7C416,64,448,32,480,53.3C512,75,544,149,576,160C608,171,640,117,672,101.3C704,85,736,107,768,138.7C800,171,832,213,864,202.7C896,192,928,128,960,122.7C992,117,1024,171,1056,170.7C1088,171,1120,117,1152,90.7C1184,64,1216,64,1248,64C1280,64,1312,64,1344,74.7C1376,85,1408,107,1424,117.3L1440,128L1440,0L1424,0C1408,0,1376,0,1344,0C1312,0,1280,0,1248,0C1216,0,1184,0,1152,0C1120,0,1088,0,1056,0C1024,0,992,0,960,0C928,0,896,0,864,0C832,0,800,0,768,0C736,0,704,0,672,0C640,0,608,0,576,0C544,0,512,0,480,0C448,0,416,0,384,0C352,0,320,0,288,0C256,0,224,0,192,0C160,0,128,0,96,0C64,0,32,0,16,0L0,0Z"></path></svg>