<?xml version="1.0" standalone="no"?><svg xmlns="http://www.w3.org/2000/svg" viewBox="0 0 1440 320"><path fill="#5000ca" fill-opacity="1" d="M0,192L0,64L53.3,64L53.3,160L106.7,160L106.7,160L160,160L160,192L213.3,192L213.3,32L266.7,32L266.7,128L320,128L320,256L373.3,256L373.3,128L426.7,128L426.7,192L480,192L480,192L533.3,192L533.3,192L586.7,192L586.7,160L640,160L640,0L693.3,0L693.3,0L746.7,0L746.7,128L800,128L800,0L853.3,0L853.3,288L906.7,288L906.7,192L960,192L960,160L1013.3,160L1013.3,224L1066.7,224L1066.7,192L1120,192L1120,192L1173.3,192L1173.3,288L1226.7,288L1226.7,128L1280,128L1280,192L1333.3,192L1333.3,288L1386.7,288L1386.7,64L1440,64L1440,320L1386.7,320L1386.7,320L1333.3,320L1333.3,320L1280,320L1280,320L1226.7,320L1226.7,320L1173.3,320L1173.3,320L1120,320L1120,320L1066.7,320L1066.7,320L1013.3,320L1013.3,320L960,320L960,320L906.7,320L906.7,320L853.3,320L853.3,320L800,320L800,320L746.7,320L746.7,320L693.3,320L693.3,320L640,320L640,320L586.7,320L586.7,320L533.3,320L533.3,320L480,320L480,320L426.7,320L426.7,320L373.3,320L373.3,320L320,320L320,320L266.7,320L266.7,320L213.3,320L213.3,320L160,320L160,320L106.7,320L106.7,320L53.3,320L53.3,320L0,320L0,320Z"></path></svg>