<?xml version="1.0" standalone="no"?><svg xmlns="http://www.w3.org/2000/svg" viewBox="0 0 1440 320"><path fill="#1e3d59" fill-opacity="0.9" d="M0,320L12.6,309.3C25.3,299,51,277,76,250.7C101.1,224,126,192,152,181.3C176.8,171,202,181,227,202.7C252.6,224,278,256,303,234.7C328.4,213,354,139,379,117.3C404.2,96,429,128,455,170.7C480,213,505,267,531,245.3C555.8,224,581,128,606,96C631.6,64,657,96,682,117.3C707.4,139,733,149,758,160C783.2,171,808,181,834,192C858.9,203,884,213,909,229.3C934.7,245,960,267,985,261.3C1010.5,256,1036,224,1061,213.3C1086.3,203,1112,213,1137,186.7C1162.1,160,1187,96,1213,106.7C1237.9,117,1263,203,1288,234.7C1313.7,267,1339,245,1364,229.3C1389.5,213,1415,203,1427,197.3L1440,192L1440,0L1427.4,0C1414.7,0,1389,0,1364,0C1338.9,0,1314,0,1288,0C1263.2,0,1238,0,1213,0C1187.4,0,1162,0,1137,0C1111.6,0,1086,0,1061,0C1035.8,0,1011,0,985,0C960,0,935,0,909,0C884.2,0,859,0,834,0C808.4,0,783,0,758,0C732.6,0,707,0,682,0C656.8,0,632,0,606,0C581.1,0,556,0,531,0C505.3,0,480,0,455,0C429.5,0,404,0,379,0C353.7,0,328,0,303,0C277.9,0,253,0,227,0C202.1,0,177,0,152,0C126.3,0,101,0,76,0C50.5,0,25,0,13,0L0,0Z"></path></svg>